<?xml version="1.0" encoding="UTF-8" standalone="no"?>
<!-- Created with Inkscape (http://www.inkscape.org/) -->

<svg
   xmlns:dc="http://purl.org/dc/elements/1.1/"
   xmlns:cc="http://creativecommons.org/ns#"
   xmlns:rdf="http://www.w3.org/1999/02/22-rdf-syntax-ns#"
   xmlns:svg="http://www.w3.org/2000/svg"
   xmlns="http://www.w3.org/2000/svg"
   xmlns:sodipodi="http://sodipodi.sourceforge.net/DTD/sodipodi-0.dtd"
   xmlns:inkscape="http://www.inkscape.org/namespaces/inkscape"
   width="210mm"
   height="297mm"
   viewBox="0 0 744.09448819 1052.3622047"
   id="svg2"
   version="1.1"
   inkscape:version="0.91 r13725"
   sodipodi:docname="logo-notext.svg">
  <defs
     id="defs4" />
  <sodipodi:namedview
     id="base"
     pagecolor="#ffffff"
     bordercolor="#666666"
     borderopacity="1.0"
     inkscape:pageopacity="0.0"
     inkscape:pageshadow="2"
     inkscape:zoom="0.35"
     inkscape:cx="532.14286"
     inkscape:cy="177.14286"
     inkscape:document-units="px"
     inkscape:current-layer="g3350"
     showgrid="false"
     inkscape:window-width="1920"
     inkscape:window-height="1017"
     inkscape:window-x="1912"
     inkscape:window-y="-8"
     inkscape:window-maximized="1" />
  <metadata
     id="metadata7">
    <rdf:RDF>
      <cc:Work
         rdf:about="">
        <dc:format>image/svg+xml</dc:format>
        <dc:type
           rdf:resource="http://purl.org/dc/dcmitype/StillImage" />
        <dc:title></dc:title>
        <cc:license
           rdf:resource="http://creativecommons.org/licenses/by/3.0/" />
        <dc:contributor>
          <cc:Agent>
            <dc:title>Uses https://thenounproject.com/term/seedling/29976/ by Matt Brooks for the Noun Project (Creative Commons)
Uses https://thenounproject.com/term/magnifying-glass/9006/ by Cris Dobbins for the Noun Project (Creative Commons)</dc:title>
          </cc:Agent>
        </dc:contributor>
      </cc:Work>
      <cc:License
         rdf:about="http://creativecommons.org/licenses/by/3.0/">
        <cc:permits
           rdf:resource="http://creativecommons.org/ns#Reproduction" />
        <cc:permits
           rdf:resource="http://creativecommons.org/ns#Distribution" />
        <cc:requires
           rdf:resource="http://creativecommons.org/ns#Notice" />
        <cc:requires
           rdf:resource="http://creativecommons.org/ns#Attribution" />
        <cc:permits
           rdf:resource="http://creativecommons.org/ns#DerivativeWorks" />
      </cc:License>
    </rdf:RDF>
  </metadata>
  <g
     inkscape:label="Layer 1"
     inkscape:groupmode="layer"
     id="layer1">
    <g
       id="g3350"
       transform="matrix(4.4607758,0,0,4.4607758,-2004.875,-533.51221)">
      <path
         id="path3338"
         d="m 553.95368,250.17627 c 13.263,0 20.692,-11.067 21.003,-11.537 0.375,-0.571 0.507,-1.269 0.366,-1.935 -0.144,-0.668 -0.545,-1.251 -1.119,-1.622 -7.02,-4.515 -13.652,-6.806 -19.717,-6.806 -7.85,0 -13.103,3.729 -16.21,7.002 -1.316,-3.913 -3.946,-9.027 -9.156,-12.908 -7.543,-5.622 -18.145,-6.967 -31.513,-3.996 -1.371,0.305 -2.241,1.657 -1.945,3.031 0.11,0.514 2.824,12.669 13.786,19.501 6.831,4.258 15.232,5.464 25.021,3.599 l 0,14.016 c -2.412,0.642 -4.641,2.19 -7.161,4.08 -2.102,1.577 -5.202,2.886 -7.475,3.719 -3.293,-1.814 -7.167,-3.007 -13.489,-3.007 -2.836,0 -5.323,0.787 -7.729,1.548 -2.468,0.782 -4.799,1.519 -7.613,1.519 -3.101,0 -5.625,2.524 -5.625,5.625 l 0,14.319 c 0,3.103 2.524,5.625 5.625,5.625 5.348,0 13.711,0.277 15.555,0.892 3.324,1.107 11.117,5.728 13.839,7.415 0.035,0.021 0.07,0.041 0.105,0.062 0.984,0.548 2.101,0.836 3.229,0.836 l 25.999,0 c 2.754,0 5.812,-2.546 6.873,-4.305 3.407,-5.657 15.633,-21.051 15.756,-21.207 0.108,-0.139 0.205,-0.289 0.284,-0.447 1.585,-3.17 0.369,-6.97 -2.824,-8.84 -4.676,-2.738 -8.599,1.323 -10.075,2.852 -0.314,0.326 -0.64,0.651 -0.965,0.975 -3.182,-1.303 -7.648,-3.358 -8.812,-4.383 -0.39,-0.344 -0.771,-0.697 -1.157,-1.056 -1.837,-1.699 -3.92,-3.624 -7.573,-5.451 -0.557,-0.278 -1.105,-0.485 -1.655,-0.656 l 0,-12.692 c 4.851,2.798 9.67,4.232 14.372,4.232 z m 5.446,-13.292 c -4.782,-1.792 -10.604,-1.16 -15.112,-0.14 2.423,-1.809 5.777,-3.354 10.199,-3.354 4.392,0 9.258,1.515 14.502,4.506 -2.52,2.725 -7.749,7.166 -15.035,7.166 -3.388,0 -6.914,-0.96 -10.526,-2.834 3.978,-1.104 9.85,-2.18 14.177,-0.556 1.324,0.497 2.798,-0.174 3.293,-1.496 0.495,-1.322 -0.176,-2.797 -1.498,-3.292 z m -47.199,-0.287 c -6.387,-3.958 -9.476,-10.301 -10.761,-13.78 10.509,-1.894 18.77,-0.681 24.576,3.615 2.384,1.764 4.074,3.885 5.312,5.973 -4.384,-2.971 -10.141,-5.911 -15.778,-5.911 -1.412,0 -2.558,1.146 -2.558,2.558 0,1.412 1.146,2.556 2.558,2.556 6.222,0 13.15,4.93 16.898,8.035 -7.994,1.33 -14.8,0.331 -20.247,-3.046 z m 35.941,45.12 c 0.044,0.003 0.088,0.004 0.135,0.004 0.662,0 1.216,0.431 1.429,1.022 0.059,0.162 0.104,0.33 0.104,0.511 0,0.847 -0.688,1.535 -1.532,1.535 -0.047,0 -0.091,0 -0.135,0.003 l -19.348,1.018 c -1.188,-0.043 -3.616,-1.581 -5.776,-3.067 -0.642,-0.442 -1.264,-0.881 -1.818,-1.273 -0.624,-0.442 -1.233,-0.87 -1.833,-1.283 -1.309,-0.904 -2.556,-1.717 -3.698,-2.288 -0.748,-0.374 -1.586,-0.338 -2.28,0.007 -0.479,0.239 -0.892,0.621 -1.15,1.137 -0.631,1.264 -0.12,2.799 1.143,3.431 1.317,0.658 3.041,1.878 4.865,3.17 3.835,2.716 7.457,5.282 10.597,5.282 0.044,0 0.091,-10e-4 0.135,-0.004 l 19.372,-1.018 c 3.633,-0.041 6.574,-3.007 6.574,-6.649 0,-0.174 -0.033,-0.34 -0.047,-0.511 -0.05,-0.635 -0.164,-1.253 -0.378,-1.827 1.556,-1.289 4.057,-3.423 6.56,-5.815 0.799,-0.762 1.597,-1.549 2.364,-2.344 2.18,-2.256 3.047,-2.436 3.812,-1.989 0.677,0.397 1.175,1.175 0.911,1.953 -1.699,2.145 -12.557,15.899 -15.923,21.488 -0.448,0.74 -1.945,1.772 -2.493,1.831 l -26.001,0 c -0.246,0 -0.489,-0.059 -0.706,-0.171 -0.961,-0.593 -10.42,-6.403 -14.85,-7.879 -3.296,-1.099 -14.883,-1.154 -17.172,-1.154 -0.283,0 -0.511,-0.23 -0.511,-0.511 l 0,-14.321 c 0,-0.281 0.229,-0.511 0.511,-0.511 3.604,0 6.554,-0.933 9.157,-1.758 2.221,-0.703 4.14,-1.31 6.185,-1.31 3.796,0 6.434,0.456 8.654,1.284 2.531,0.944 4.518,2.375 7.03,4.195 1.819,1.318 3.882,2.812 6.53,4.389 1.33,0.792 3.536,1.411 6.005,1.894 5.309,1.037 11.846,1.438 13.578,1.529 z"
         inkscape:connector-curvature="0" />
      <text
         id="text3340"
         font-weight="bold"
         font-size="5px"
         y="115"
         x="0"
         style="font-weight:bold;font-size:5px;font-family:'Helvetica Neue', Helvetica, Arial-Unicode, Arial, Sans-serif;fill:#000000" />
      <g
         id="g3373"
         transform="matrix(0.22417625,0,0,0.22417625,511.39219,301.4821)">
        <g
           id="g3357"
           transform="matrix(10.908996,0,0,10.908996,-271.06456,-663.23818)">
          <path
             id="path3361"
             d="M 98.415,78.722 60.492,52.564 c 1.072,-3.16 1.725,-6.562 1.725,-10.108 C 62.217,25.896 49.14,12.437 33.114,12.437 17.061,12.438 4,25.896 4,42.457 4,59.006 17.061,72.46 33.114,72.46 c 7.311,0 14.013,-2.824 19.154,-7.459 L 90.461,90 C 101.06,88.256 98.415,78.722 98.415,78.722 Z M 33.114,68.711 c -13.962,0 -25.342,-11.785 -25.342,-26.254 0,-14.489 11.38,-26.266 25.342,-26.266 13.974,0 25.318,11.777 25.318,26.266 10e-4,14.469 -11.344,26.254 -25.318,26.254 z"
             inkscape:connector-curvature="0"
             style="fill:#000000" />
        </g>
        <text
           id="text3363"
           font-weight="bold"
           font-size="5px"
           y="115"
           x="0"
           style="font-weight:bold;font-size:5px;font-family:'Helvetica Neue', Helvetica, Arial-Unicode, Arial, Sans-serif;fill:#000000">Created by Cris Dobbins</text>
        <text
           id="text3365"
           font-weight="bold"
           font-size="5px"
           y="120"
           x="0"
           style="font-weight:bold;font-size:5px;font-family:'Helvetica Neue', Helvetica, Arial-Unicode, Arial, Sans-serif;fill:#000000">from the Noun Project</text>
      </g>
    </g>
  </g>
</svg>
